<svg style="opacity: 1; transition: opacity 0.3s ease 0s; overflow: visible;" id="__tmb-518" xmlns="http://www.w3.org/2000/svg" viewBox="0 0 512 512"><svg xmlns="http://www.w3.org/2000/svg" width="512" height="512" viewBox="12.90625 134.9765625 489.05078125 221.96875" data-svgdocument="" id="_F7g1IQfhRjaDej3rFYLh6" class="fl-svgdocument" x="0" y="0" style="overflow: visible;" xmlns:xlink="http://www.w3.org/1999/xlink"><defs id="_MaIzexQ6ap5dgz2x3BfdL" transform="matrix(1, 0, 0, 1, 2.934398651123047, -0.0000073452310971333645)"></defs><g id="_cQMuhqOz7DGLXDgKnr_P_" transform="matrix(0.9748302102088928, 0, 0, 0.9748302102088928, 8.86058235168457, 4.7554521560668945)"><path id="_DJfeFkIpLOkhmQ6XPGxCr" d="M1135.489,1869.41c-54.202,0-109.341-12.591-163.887-37.424c-48.258-21.971-95.257-53.06-139.691-92.402     c-39.071-34.595-75.482-75.266-105.296-117.614c-27.7-39.345-48.691-78.456-60.703-113.104     c-47.003-135.586-70.103-159.772-220.395-317.137l-0.269-0.282l0.292-0.258c95.476-84.322,193.351-127.077,290.906-127.077     c52.293,0,104.816,12.342,156.11,36.682c41.026,19.468,81.362,46.612,119.888,80.679     c65.588,57.997,103.679,116.758,104.056,117.345l0.092,0.143l-0.047,0.163c-78.273,274.695-57.663,335.99-12.503,470.29     c9.626,28.628,20.537,61.075,31.808,99.517l0.141,0.48H1135.489z" stroke="none" fill="#117182" transform="matrix(0.06799230724573135, 0, 0, 0.07691105455160141, 156.59475708007812, 109.87701416015625)"></path><path id="_qVHaCnKOKdkCgJrp_BE0m" d="M824.227,2085.855c-72.56,0-137.921-13.329-194.266-39.618c-62.897-29.345-111.703-73.824-145.063-132.204     c-77.742-136.047-161.764-207.711-218.561-243.873c-61.512-39.164-105.18-46.26-105.613-46.327l-0.683-0.105l0.461-0.515     c0.314-0.352,32.058-35.546,84.109-70.279c30.572-20.401,62.068-36.656,93.612-48.314     c39.438-14.576,79.063-21.967,117.774-21.967c47.341,0,94.018,11.077,138.734,32.923l0.096,0.047l0.057,0.09     c107.469,170.564,236.878,292.474,384.633,362.341c115.492,54.611,205.486,58.855,230.317,58.855     c4.341,0,6.686-0.131,6.709-0.132l0.917-0.053l-0.619,0.68c-38.223,41.951-97.749,79.757-167.614,106.453     C977.322,2071.332,899.518,2085.855,824.227,2085.855z" stroke="none" fill="#42afc2" transform="matrix(0.06799230724573135, 0, 0, 0.07691105455160141, 153.9996337890625, 112.48458862304688)"></path><path id="_9r7AdIJwtMLxXa182bRhb" d="M1698.804,1258.046c-29.531-32.108-56.412-67.534-82.408-101.793c-61.076-80.489-118.759-156.515-199.07-174.122     c-80.312,17.607-137.995,93.633-199.07,174.122c-25.996,34.259-52.877,69.685-82.409,101.793l-0.326,0.355l-0.264-0.404     c-58.677-89.844-99.559-114.101-208.819-178.929c-21.146-12.547-45.114-26.768-72.152-43.226l-0.17-0.104l-0.009-0.199     c-3.966-83.283,6.523-154.126,31.176-210.563c29.198-66.842,79.094-115.531,148.303-144.716     c70.312-29.649,170.83-110.898,242.772-173.837c77.963-68.205,140.085-130.19,140.704-130.808l0.265-0.265l0.265,0.265     c0.619,0.618,62.745,62.606,140.708,130.811c71.941,62.938,172.458,144.186,242.767,173.834     c69.209,29.185,119.105,77.874,148.304,144.716c24.653,56.436,35.143,127.279,31.177,210.563l-0.01,0.199l-0.17,0.104     c-27.04,16.459-51.008,30.68-72.154,43.227c-109.26,64.828-150.142,89.084-208.817,178.929l-0.265,0.404L1698.804,1258.046z" stroke="none" fill="#42afc2" transform="matrix(0.06799230724573135, 0, 0, 0.07691105455160141, 159.1673126220703, 104.71312713623047)"></path><path id="_joO86ShA-Rn3zgHURKJbB" d="M1698.66,1869.41l0.141-0.48c11.271-38.442,22.182-70.89,31.808-99.518c45.159-134.299,65.77-195.595-12.504-470.289     l-0.047-0.163l0.092-0.143c0.377-0.587,38.46-59.348,104.044-117.345c38.522-34.066,78.858-61.21,119.886-80.679     c51.296-24.34,103.823-36.682,156.124-36.682c97.556,0,195.431,42.755,290.906,127.077l0.292,0.258l-0.269,0.282     c-150.292,157.364-173.392,181.551-220.396,317.137c-12.012,34.648-33.002,73.76-60.701,113.104     c-29.814,42.349-66.226,83.02-105.296,117.614c-44.434,39.343-91.433,70.432-139.69,92.402     c-54.547,24.833-109.687,37.424-163.889,37.424H1698.66z" stroke="none" fill="#117182" transform="matrix(0.06799230724573135, 0, 0, 0.07691105455160141, 161.78533935546875, 109.87709045410156)"></path><path id="_2-FS5Z6T6uAH9GTM8y09R" d="M2010.423,2085.855c-75.284-0.003-153.088-14.528-224.998-42.005c-69.872-26.698-129.399-64.502-167.617-106.447     l-0.619-0.68l0.918,0.053c0.023,0.001,2.362,0.132,6.709,0.132c24.833,0,114.833-4.245,230.335-58.866     c147.749-69.869,277.151-191.774,384.615-362.33l0.057-0.09l0.096-0.047c44.717-21.846,91.394-32.923,138.734-32.923     c38.707,0,78.329,7.391,117.766,21.967c31.544,11.658,63.04,27.913,93.613,48.314c52.055,34.733,83.803,69.928,84.117,70.279     l0.461,0.515l-0.683,0.105c-0.435,0.067-44.139,7.176-105.659,46.355c-56.784,36.163-140.789,107.823-218.517,243.845     c-33.364,58.388-82.169,102.87-145.059,132.212c-56.333,26.283-121.687,39.61-194.244,39.61     C2010.439,2085.855,2010.432,2085.855,2010.423,2085.855z" stroke="none" fill="#42afc2" transform="matrix(0.06799230724573135, 0, 0, 0.07691105455160141, 164.2906036376953, 113.34296417236328)"></path><path id="_0QRRML4kuoquqTftP7Frs" d="M1412.911,2277.986c-1.112-1.147-111.43-115.679-130.946-192.413c-4.524-17.789-1.653-34.806,8.535-50.577     c8.133-12.592,20.921-24.416,38.01-35.146c29.063-18.247,60.951-27.124,61.27-27.211l0.048-0.014h46.707l0.049,0.014     c0.318,0.087,32.206,8.964,61.269,27.211c17.089,10.729,29.878,22.554,38.011,35.146c10.188,15.771,13.06,32.788,8.535,50.577     c-19.517,76.734-129.835,191.266-130.947,192.413l-0.27,0.278L1412.911,2277.986z" stroke="none" fill="#117182" transform="matrix(0.06799230724573135, 0, 0, 0.07691105455160141, 159.1947021484375, 111.62487030029297)"></path><path id="_XTrUOBWKZhEtFNTyLSzZJ" d="M1413.042,1950.047c-0.72-0.285-72.84-29.258-144.412-94.104c-42.039-38.089-75.671-80.922-99.961-127.307    c-30.365-57.985-46.133-121.714-46.865-189.417c-0.732-67.695,14.121-136.979,44.147-205.925    c24.017-55.147,57.74-110.204,100.232-163.64c70.772-89,142.834-144.003,146.622-146.866v-3.87l0.599,0.448    c0.736,0.549,74.428,56.003,146.772,146.979c42.493,53.436,76.216,108.493,100.232,163.64    c30.026,68.946,44.88,138.229,44.147,205.925c-0.732,67.702-16.5,131.431-46.864,189.416    c-24.291,46.385-57.923,89.218-99.962,127.307c-69.515,62.983-139.547,92.125-144.175,94.01v3.607L1413.042,1950.047z" stroke="none" fill="#117182" transform="matrix(0.06799230724573135, 0, 0, 0.07691105455160141, 159.2022247314453, 109.89225006103516)"></path></g><path id="_sdGpG1rlHOux_utPSeHYe" fill="#455a5c" transform="matrix(0.6575935482978821, 0, 0, 0.6575935482978821, 256.115478515625, 355.36785888671875)" text="Baazar on Door" text-anchor="middle" font-size="100" letter-spacing="0" side="left" offset="0.5" dx="0" dy="0" space="preserve" href="" font-family="Gabriela" font-scale="contain" x="0" y="0" data-fl-textpath="" d="M-317.95-53.5Q-317.95-47.9 -320.59999999999997-43.4Q-323.24999999999994-38.9 -328.45-36.4L-328.45-36.4Q-321.74999999999994-34.2 -317.99999999999994-29.7Q-314.24999999999994-25.2 -314.24999999999994-19.7L-314.24999999999994-19.7Q-314.24999999999994-10.6 -320.45-5.3Q-326.65 0 -340.24999999999994 0L-340.24999999999994 0L-368.15 0L-369.34999999999997-3.4L-367.04999999999995-4Q-363.24999999999994-5.1 -361.95-6.9Q-360.65-8.7 -360.65-13.3L-360.65-13.3L-360.65-62.7Q-360.65-64 -361.15-64.55Q-361.65-65.1 -362.84999999999997-65.1L-362.84999999999997-65.1L-368.65-65.1L-369.84999999999997-68.8Q-365.54999999999995-70.5 -358.54999999999995-71.85Q-351.54999999999995-73.2 -345.04999999999995-73.2L-345.04999999999995-73.2Q-331.34999999999997-73.2 -324.65-67.7Q-317.95-62.2 -317.95-53.5L-317.95-53.5ZM-350.74999999999994-18.3Q-350.74999999999994-10.1 -347.45-7.65Q-344.15-5.2 -339.65-5.2L-339.65-5.2Q-332.65-5.2 -328.65-9.35Q-324.65-13.5 -324.65-20.2L-324.65-20.2Q-324.65-24 -326.59999999999997-27.15Q-328.54999999999995-30.3 -332.15-32.2Q-335.74999999999994-34.1 -340.54999999999995-34.1L-340.54999999999995-34.1Q-342.24999999999994-34.1 -344.09999999999997-34.5Q-345.95-34.9 -347.04999999999995-35.4L-347.04999999999995-35.4Q-348.54999999999995-36.1 -348.54999999999995-37.6L-348.54999999999995-37.6Q-348.54999999999995-39.4 -347.15-39.4L-347.15-39.4Q-346.74999999999994-39.4 -345.49999999999994-39.05Q-344.24999999999994-38.7 -342.15-38.7L-342.15-38.7Q-335.34999999999997-38.7 -331.59999999999997-42.7Q-327.84999999999997-46.7 -327.84999999999997-53.3L-327.84999999999997-53.3Q-327.84999999999997-59.6 -332.09999999999997-63.6Q-336.34999999999997-67.6 -344.04999999999995-67.6L-344.04999999999995-67.6Q-350.74999999999994-67.6 -350.74999999999994-63L-350.74999999999994-63L-350.74999999999994-18.3ZM-268.6499999999999-9.2Q-272.74999999999994-3.4 -277.04999999999995-1Q-281.34999999999997 1.4 -286.34999999999997 1.4L-286.34999999999997 1.4Q-291.1499999999999 1.4 -295.24999999999994-1.35Q-299.34999999999997-4.1 -301.79999999999995-9.6Q-304.24999999999994-15.1 -304.24999999999994-22.9L-304.24999999999994-22.9Q-304.24999999999994-31.5 -301.09999999999997-37.85Q-297.94999999999993-44.2 -292.09999999999997-47.6Q-286.24999999999994-51 -278.34999999999997-51L-278.34999999999997-51Q-274.44999999999993-51 -267.34999999999997-49.7L-267.34999999999997-49.7Q-261.34999999999997-48.7 -258.34999999999997-48.5L-258.34999999999997-48.5L-257.24999999999994-47.2L-258.44999999999993-45.4Q-259.1499999999999-44.4 -259.44999999999993-43.55Q-259.74999999999994-42.7 -259.74999999999994-41.5L-259.74999999999994-41.5L-259.74999999999994-8.8Q-259.74999999999994-5.7 -256.74999999999994-5.7L-256.74999999999994-5.7Q-254.24999999999994-5.7 -251.74999999999994-7.5L-251.74999999999994-7.5L-249.84999999999994-4.9Q-252.44999999999993-2 -255.44999999999993-0.3Q-258.44999999999993 1.4 -260.94999999999993 1.4L-260.94999999999993 1.4Q-265.04999999999995 1.4 -266.84999999999997-1.1Q-268.6499999999999-3.6 -268.6499999999999-9.2L-268.6499999999999-9.2ZM-293.74999999999994-24.8Q-293.74999999999994-15.3 -290.49999999999994-10.8Q-287.24999999999994-6.3 -282.34999999999997-6.3L-282.34999999999997-6.3Q-278.34999999999997-6.3 -274.84999999999997-8.55Q-271.34999999999997-10.8 -268.6499999999999-15.4L-268.6499999999999-15.4L-268.6499999999999-42.4Q-273.24999999999994-45.5 -278.44999999999993-45.5L-278.44999999999993-45.5Q-285.74999999999994-45.5 -289.74999999999994-40.05Q-293.74999999999994-34.6 -293.74999999999994-24.8L-293.74999999999994-24.8ZM-208.24999999999991-9.2Q-212.3499999999999-3.4 -216.64999999999992-1Q-220.9499999999999 1.4 -225.9499999999999 1.4L-225.9499999999999 1.4Q-230.74999999999991 1.4 -234.8499999999999-1.35Q-238.9499999999999-4.1 -241.39999999999992-9.6Q-243.8499999999999-15.1 -243.8499999999999-22.9L-243.8499999999999-22.9Q-243.8499999999999-31.5 -240.6999999999999-37.85Q-237.5499999999999-44.2 -231.6999999999999-47.6Q-225.8499999999999-51 -217.9499999999999-51L-217.9499999999999-51Q-214.0499999999999-51 -206.9499999999999-49.7L-206.9499999999999-49.7Q-200.9499999999999-48.7 -197.9499999999999-48.5L-197.9499999999999-48.5L-196.8499999999999-47.2L-198.0499999999999-45.4Q-198.74999999999991-44.4 -199.0499999999999-43.55Q-199.3499999999999-42.7 -199.3499999999999-41.5L-199.3499999999999-41.5L-199.3499999999999-8.8Q-199.3499999999999-5.7 -196.3499999999999-5.7L-196.3499999999999-5.7Q-193.8499999999999-5.7 -191.3499999999999-7.5L-191.3499999999999-7.5L-189.4499999999999-4.9Q-192.0499999999999-2 -195.0499999999999-0.3Q-198.0499999999999 1.4 -200.5499999999999 1.4L-200.5499999999999 1.4Q-204.64999999999992 1.4 -206.4499999999999-1.1Q-208.24999999999991-3.6 -208.24999999999991-9.2L-208.24999999999991-9.2ZM-233.3499999999999-24.8Q-233.3499999999999-15.3 -230.0999999999999-10.8Q-226.8499999999999-6.3 -221.9499999999999-6.3L-221.9499999999999-6.3Q-217.9499999999999-6.3 -214.4499999999999-8.55Q-210.9499999999999-10.8 -208.24999999999991-15.4L-208.24999999999991-15.4L-208.24999999999991-42.4Q-212.8499999999999-45.5 -218.0499999999999-45.5L-218.0499999999999-45.5Q-225.3499999999999-45.5 -229.3499999999999-40.05Q-233.3499999999999-34.6 -233.3499999999999-24.8L-233.3499999999999-24.8ZM-172.34999999999994-5.8L-156.64999999999992-5.8Q-152.84999999999994-5.8 -151.29999999999993-6.65Q-149.74999999999994-7.5 -149.14999999999992-10L-149.14999999999992-10L-147.94999999999993-15.3L-144.84999999999994-14.2L-144.84999999999994 1.2L-146.04999999999993 2.4Q-148.14999999999992 1 -150.69999999999993 0.5Q-153.24999999999994 0 -157.94999999999993 0L-157.94999999999993 0L-183.54999999999993 0L-184.64999999999992-3.1L-156.54999999999993-43.9L-171.54999999999993-43.9Q-175.34999999999994-43.9 -176.89999999999992-43.05Q-178.44999999999993-42.2 -179.04999999999993-39.7L-179.04999999999993-39.7L-180.24999999999994-34.4L-183.34999999999994-35.5L-183.34999999999994-50.9L-182.14999999999992-52.1Q-180.04999999999993-50.7 -177.49999999999994-50.2Q-174.94999999999993-49.7 -170.24999999999994-49.7L-170.24999999999994-49.7L-145.34999999999994-49.7Q-143.34999999999994-48 -143.34999999999994-45.4L-143.34999999999994-45.4L-146.04999999999993-43.8L-172.34999999999994-5.8ZM-99.94999999999993-9.2Q-104.04999999999993-3.4 -108.34999999999992-1Q-112.64999999999992 1.4 -117.64999999999992 1.4L-117.64999999999992 1.4Q-122.44999999999993 1.4 -126.54999999999993-1.35Q-130.64999999999992-4.1 -133.09999999999994-9.6Q-135.54999999999993-15.1 -135.54999999999993-22.9L-135.54999999999993-22.9Q-135.54999999999993-31.5 -132.39999999999992-37.85Q-129.24999999999991-44.2 -123.39999999999992-47.6Q-117.54999999999993-51 -109.64999999999992-51L-109.64999999999992-51Q-105.74999999999993-51 -98.64999999999992-49.7L-98.64999999999992-49.7Q-92.64999999999992-48.7 -89.64999999999992-48.5L-89.64999999999992-48.5L-88.54999999999993-47.2L-89.74999999999993-45.4Q-90.44999999999993-44.4 -90.74999999999993-43.55Q-91.04999999999993-42.7 -91.04999999999993-41.5L-91.04999999999993-41.5L-91.04999999999993-8.8Q-91.04999999999993-5.7 -88.04999999999993-5.7L-88.04999999999993-5.7Q-85.54999999999993-5.7 -83.04999999999993-7.5L-83.04999999999993-7.5L-81.14999999999992-4.9Q-83.74999999999993-2 -86.74999999999993-0.3Q-89.74999999999993 1.4 -92.24999999999993 1.4L-92.24999999999993 1.4Q-96.34999999999992 1.4 -98.14999999999992-1.1Q-99.94999999999993-3.6 -99.94999999999993-9.2L-99.94999999999993-9.2ZM-125.04999999999993-24.8Q-125.04999999999993-15.3 -121.79999999999993-10.8Q-118.54999999999993-6.3 -113.64999999999992-6.3L-113.64999999999992-6.3Q-109.64999999999992-6.3 -106.14999999999992-8.55Q-102.64999999999992-10.8 -99.94999999999993-15.4L-99.94999999999993-15.4L-99.94999999999993-42.4Q-104.54999999999993-45.5 -109.74999999999993-45.5L-109.74999999999993-45.5Q-117.04999999999993-45.5 -121.04999999999993-40.05Q-125.04999999999993-34.6 -125.04999999999993-24.8L-125.04999999999993-24.8ZM-59.24999999999992-36.1L-58.64999999999992-36.1Q-56.94999999999992-42.8 -53.39999999999992-46.9Q-49.84999999999992-51 -45.64999999999992-51L-45.64999999999992-51Q-41.44999999999992-51 -38.69999999999992-48.25Q-35.94999999999992-45.5 -35.94999999999992-40.8L-35.94999999999992-40.8Q-35.94999999999992-37 -38.74999999999992-34.4Q-41.54999999999992-31.8 -45.74999999999992-31.8L-45.74999999999992-31.8Q-47.64999999999992-31.8 -47.64999999999992-32.9L-47.64999999999992-32.9Q-47.64999999999992-33.2 -46.79999999999992-34.4Q-45.94999999999992-35.6 -45.39999999999992-36.9Q-44.84999999999992-38.2 -44.84999999999992-39.8L-44.84999999999992-39.8Q-44.84999999999992-41.6 -45.79999999999992-42.65Q-46.74999999999992-43.7 -48.14999999999992-43.7L-48.14999999999992-43.7Q-50.54999999999992-43.7 -53.09999999999992-40.85Q-55.64999999999992-38 -57.44999999999992-31.65Q-59.24999999999992-25.3 -59.24999999999992-15.6L-59.24999999999992-15.6Q-59.24999999999992-11.1 -58.54999999999992-8.35Q-57.84999999999992-5.6 -56.04999999999992-3.1L-56.04999999999992-3.1L-54.84999999999992-1.5L-56.04999999999992 0L-73.54999999999993 0L-74.64999999999992-3.1L-72.54999999999993-3.6Q-70.04999999999993-4.2 -69.19999999999992-5.75Q-68.34999999999992-7.3 -68.34999999999992-11.1L-68.34999999999992-11.1L-68.34999999999992-39.2Q-68.34999999999992-40.4 -68.79999999999993-40.9Q-69.24999999999991-41.4 -70.34999999999992-41.4L-70.34999999999992-41.4L-74.74999999999991-41.4L-75.64999999999992-44Q-72.74999999999991-46.6 -68.99999999999991-48.3Q-65.24999999999991-50 -62.44999999999992-50L-62.44999999999992-50Q-61.04999999999992-50 -60.14999999999992-49.1Q-59.24999999999992-48.2 -59.24999999999992-46.8L-59.24999999999992-46.8L-59.24999999999992-36.1ZM-3.9499999999999176-24.8Q-3.9499999999999176-32.8 -0.9999999999999174-38.7Q 1.9500000000000828-44.6  7.500000000000082-47.8Q 13.050000000000082-51  20.45000000000008-51L 20.45000000000008-51Q 27.85000000000008-51  33.35000000000008-47.8Q 38.85000000000008-44.6  41.85000000000008-38.7Q 44.85000000000008-32.8  44.85000000000008-24.8L 44.85000000000008-24.8Q 44.85000000000008-16.9  41.85000000000008-10.95Q 38.85000000000008-5  33.35000000000008-1.8Q 27.85000000000008 1.4  20.45000000000008 1.4L 20.45000000000008 1.4Q 13.050000000000082 1.4  7.500000000000082-1.8Q 1.9500000000000828-5 -0.9999999999999174-10.95Q-3.9499999999999176-16.9 -3.9499999999999176-24.8L-3.9499999999999176-24.8ZM 34.35000000000008-24.5Q 34.35000000000008-29.2  33.05000000000008-34.1Q 31.750000000000085-39  28.70000000000008-42.4Q 25.650000000000084-45.8  20.75000000000008-45.8L 20.75000000000008-45.8Q 16.550000000000082-45.8  13.300000000000082-43.15Q 10.050000000000082-40.5  8.250000000000082-35.7Q 6.450000000000083-30.9  6.450000000000083-24.7L 6.450000000000083-24.7Q 6.450000000000083-15.2  10.150000000000084-9.6Q 13.850000000000083-4  20.150000000000084-4L 20.150000000000084-4Q 24.250000000000085-4  27.500000000000085-6.55Q 30.750000000000085-9.1  32.55000000000008-13.75Q 34.35000000000008-18.4  34.35000000000008-24.5L 34.35000000000008-24.5ZM 69.75000000000009-16Q 69.75000000000009-11.3  70.4500000000001-8.5Q 71.15000000000009-5.7  72.9500000000001-3.1L 72.9500000000001-3.1L 74.15000000000009-1.5L 72.9500000000001 0L 55.450000000000095 0L 54.350000000000094-3.1L 56.450000000000095-3.6Q 58.950000000000095-4.2  59.8000000000001-5.75Q 60.65000000000009-7.3  60.65000000000009-11.1L 60.65000000000009-11.1L 60.65000000000009-39.2Q 60.65000000000009-40.4  60.200000000000095-40.9Q 59.75000000000009-41.4  58.65000000000009-41.4L 58.65000000000009-41.4L 54.25000000000009-41.4L 53.350000000000094-44Q 56.25000000000009-46.6  60.00000000000009-48.3Q 63.75000000000009-50  66.5500000000001-50L 66.5500000000001-50Q 67.9500000000001-50  68.8500000000001-49.1Q 69.75000000000009-48.2  69.75000000000009-46.8L 69.75000000000009-46.8L 69.75000000000009-36.1Q 72.3500000000001-42.6  77.5500000000001-46.8Q 82.75000000000009-51  88.4500000000001-51L 88.4500000000001-51Q 95.4500000000001-51  98.65000000000009-46.7Q 101.8500000000001-42.4  101.8500000000001-33L 101.8500000000001-33L 101.8500000000001-8.8Q 101.8500000000001-5.4  104.8500000000001-5.4L 104.8500000000001-5.4Q 107.15000000000009-5.4  109.8500000000001-7.5L 109.8500000000001-7.5L 111.75000000000009-4.9Q 109.15000000000009-2  106.15000000000009-0.3Q 103.15000000000009 1.4  100.5500000000001 1.4L 100.5500000000001 1.4Q 96.4500000000001 1.4  94.65000000000009-1.1Q 92.8500000000001-3.6  92.8500000000001-9.2L 92.8500000000001-9.2L 92.8500000000001-33Q 92.8500000000001-43.2  84.25000000000009-43.2L 84.25000000000009-43.2Q 79.9500000000001-43.2  76.7000000000001-39.8Q 73.4500000000001-36.4  71.6000000000001-30.2Q 69.75000000000009-24  69.75000000000009-16L 69.75000000000009-16ZM 146.45000000000007 0L 145.25000000000009-3.4L 147.5500000000001-4Q 150.75000000000009-4.9  152.35000000000008-6.65Q 153.95000000000007-8.4  153.95000000000007-12.2L 153.95000000000007-12.2L 153.95000000000007-62.7Q 153.95000000000007-64  153.45000000000007-64.55Q 152.95000000000007-65.1  151.75000000000009-65.1L 151.75000000000009-65.1L 145.95000000000007-65.1L 144.75000000000009-68.8Q 149.5500000000001-70.5  157.1500000000001-71.85Q 164.75000000000009-73.2  171.85000000000008-73.2L 171.85000000000008-73.2Q 192.75000000000009-73.2  201.9000000000001-62.85Q 211.05000000000007-52.5  211.05000000000007-35.8L 211.05000000000007-35.8Q 211.05000000000007-25.6  207.30000000000007-17.5Q 203.55000000000007-9.4  196.10000000000008-4.7Q 188.6500000000001 0  177.85000000000008 0L 177.85000000000008 0L 146.45000000000007 0ZM 163.85000000000008-17.5Q 163.85000000000008-10.4  166.8000000000001-7.75Q 169.75000000000009-5.1  174.6500000000001-5.1L 174.6500000000001-5.1Q 200.1500000000001-5.1  200.1500000000001-36L 200.1500000000001-36Q 200.1500000000001-44.4  197.25000000000009-51.6Q 194.35000000000008-58.8  188.4000000000001-63.2Q 182.4500000000001-67.6  173.6500000000001-67.6L 173.6500000000001-67.6Q 163.85000000000008-67.6  163.85000000000008-63L 163.85000000000008-63L 163.85000000000008-17.5ZM 219.05000000000007-24.8Q 219.05000000000007-32.8  222.00000000000006-38.7Q 224.95000000000007-44.6  230.50000000000006-47.8Q 236.05000000000007-51  243.45000000000007-51L 243.45000000000007-51Q 250.85000000000008-51  256.3500000000001-47.8Q 261.8500000000001-44.6  264.8500000000001-38.7Q 267.8500000000001-32.8  267.8500000000001-24.8L 267.8500000000001-24.8Q 267.8500000000001-16.9  264.8500000000001-10.95Q 261.8500000000001-5  256.3500000000001-1.8Q 250.85000000000008 1.4  243.45000000000007 1.4L 243.45000000000007 1.4Q 236.05000000000007 1.4  230.50000000000006-1.8Q 224.95000000000007-5  222.00000000000006-10.95Q 219.05000000000007-16.9  219.05000000000007-24.8L 219.05000000000007-24.8ZM 257.3500000000001-24.5Q 257.3500000000001-29.2  256.05000000000007-34.1Q 254.75000000000006-39  251.70000000000007-42.4Q 248.65000000000006-45.8  243.75000000000006-45.8L 243.75000000000006-45.8Q 239.55000000000007-45.8  236.30000000000007-43.15Q 233.05000000000007-40.5  231.25000000000006-35.7Q 229.45000000000007-30.9  229.45000000000007-24.7L 229.45000000000007-24.7Q 229.45000000000007-15.2  233.15000000000006-9.6Q 236.85000000000008-4  243.15000000000006-4L 243.15000000000006-4Q 247.25000000000006-4  250.50000000000006-6.55Q 253.75000000000006-9.1  255.55000000000007-13.75Q 257.3500000000001-18.4  257.3500000000001-24.5L 257.3500000000001-24.5ZM 276.8500000000001-24.8Q 276.8500000000001-32.8  279.80000000000007-38.7Q 282.75000000000006-44.6  288.30000000000007-47.8Q 293.8500000000001-51  301.25000000000006-51L 301.25000000000006-51Q 308.6500000000001-51  314.1500000000001-47.8Q 319.6500000000001-44.6  322.6500000000001-38.7Q 325.6500000000001-32.8  325.6500000000001-24.8L 325.6500000000001-24.8Q 325.6500000000001-16.9  322.6500000000001-10.95Q 319.6500000000001-5  314.1500000000001-1.8Q 308.6500000000001 1.4  301.25000000000006 1.4L 301.25000000000006 1.4Q 293.8500000000001 1.4  288.30000000000007-1.8Q 282.75000000000006-5  279.80000000000007-10.95Q 276.8500000000001-16.9  276.8500000000001-24.8L 276.8500000000001-24.8ZM 315.1500000000001-24.5Q 315.1500000000001-29.2  313.8500000000001-34.1Q 312.55000000000007-39  309.50000000000006-42.4Q 306.4500000000001-45.8  301.55000000000007-45.8L 301.55000000000007-45.8Q 297.3500000000001-45.8  294.1000000000001-43.15Q 290.8500000000001-40.5  289.05000000000007-35.7Q 287.25000000000006-30.9  287.25000000000006-24.7L 287.25000000000006-24.7Q 287.25000000000006-15.2  290.9500000000001-9.6Q 294.6500000000001-4  300.9500000000001-4L 300.9500000000001-4Q 305.05000000000007-4  308.30000000000007-6.55Q 311.55000000000007-9.1  313.3500000000001-13.75Q 315.1500000000001-18.4  315.1500000000001-24.5L 315.1500000000001-24.5ZM 350.55000000000007-36.1L 351.1500000000001-36.1Q 352.8500000000001-42.8  356.4000000000001-46.9Q 359.9500000000001-51  364.1500000000001-51L 364.1500000000001-51Q 368.3500000000001-51  371.1000000000001-48.25Q 373.8500000000001-45.5  373.8500000000001-40.8L 373.8500000000001-40.8Q 373.8500000000001-37  371.05000000000007-34.4Q 368.2500000000001-31.8  364.05000000000007-31.8L 364.05000000000007-31.8Q 362.1500000000001-31.8  362.1500000000001-32.9L 362.1500000000001-32.9Q 362.1500000000001-33.2  363.0000000000001-34.4Q 363.8500000000001-35.6  364.4000000000001-36.9Q 364.9500000000001-38.2  364.9500000000001-39.8L 364.9500000000001-39.8Q 364.9500000000001-41.6  364.0000000000001-42.65Q 363.05000000000007-43.7  361.6500000000001-43.7L 361.6500000000001-43.7Q 359.2500000000001-43.7  356.7000000000001-40.85Q 354.1500000000001-38  352.3500000000001-31.65Q 350.55000000000007-25.3  350.55000000000007-15.6L 350.55000000000007-15.6Q 350.55000000000007-11.1  351.2500000000001-8.35Q 351.9500000000001-5.6  353.7500000000001-3.1L 353.7500000000001-3.1L 354.9500000000001-1.5L 353.7500000000001 0L 336.2500000000001 0L 335.1500000000001-3.1L 337.2500000000001-3.6Q 339.7500000000001-4.2  340.6000000000001-5.75Q 341.4500000000001-7.3  341.4500000000001-11.1L 341.4500000000001-11.1L 341.4500000000001-39.2Q 341.4500000000001-40.4  341.0000000000001-40.9Q 340.55000000000007-41.4  339.4500000000001-41.4L 339.4500000000001-41.4L 335.05000000000007-41.4L 334.1500000000001-44Q 337.05000000000007-46.6  340.80000000000007-48.3Q 344.55000000000007-50  347.3500000000001-50L 347.3500000000001-50Q 348.7500000000001-50  349.6500000000001-49.1Q 350.55000000000007-48.2  350.55000000000007-46.8L 350.55000000000007-46.8L 350.55000000000007-36.1Z"></path></svg></svg>